<?xml version="1.0" encoding="UTF-8" standalone="no"?>
<svg
   width="512px"
   height="512px"
   viewBox="-32 0 512 512"
   version="1.1"
   id="svg2664"
   sodipodi:docname="die_5.svg"
   inkscape:version="1.2.1 (9c6d41e410, 2022-07-14)"
   xmlns:inkscape="http://www.inkscape.org/namespaces/inkscape"
   xmlns:sodipodi="http://sodipodi.sourceforge.net/DTD/sodipodi-0.dtd"
   xmlns="http://www.w3.org/2000/svg"
   xmlns:svg="http://www.w3.org/2000/svg">
  <defs
     id="defs2668" />
  <sodipodi:namedview
     id="namedview2666"
     pagecolor="#ffffff"
     bordercolor="#666666"
     borderopacity="1.0"
     inkscape:showpageshadow="2"
     inkscape:pageopacity="0.0"
     inkscape:pagecheckerboard="0"
     inkscape:deskcolor="#d1d1d1"
     showgrid="false"
     inkscape:zoom="1.6152344"
     inkscape:cx="255.69045"
     inkscape:cy="256.30955"
     inkscape:window-width="1920"
     inkscape:window-height="1007"
     inkscape:window-x="0"
     inkscape:window-y="0"
     inkscape:window-maximized="1"
     inkscape:current-layer="svg2664" />
  <path
     d="M384 32H64C28.65 32 0 60.65 0 96v320c0 35.35 28.65 64 64 64h320c35.35 0 64-28.65 64-64V96c0-35.35-28.65-64-64-64zM128 384c-17.67 0-32-14.33-32-32s14.33-32 32-32 32 14.33 32 32-14.33 32-32 32zm0-192c-17.67 0-32-14.33-32-32s14.33-32 32-32 32 14.33 32 32-14.33 32-32 32zm96 96c-17.67 0-32-14.33-32-32s14.33-32 32-32 32 14.33 32 32-14.33 32-32 32zm96 96c-17.67 0-32-14.33-32-32s14.33-32 32-32 32 14.33 32 32-14.33 32-32 32zm0-192c-17.67 0-32-14.33-32-32s14.33-32 32-32 32 14.33 32 32-14.33 32-32 32z"
     id="path2662" />
  <path
     style="fill:#ffffff;stroke-width:3.66198"
     d="m 152.4273,190.64935 c -12.45761,-3.35314 -21.79037,-13.68882 -23.72712,-26.27692 -2.31776,-15.06451 7.90021,-30.61799 22.83543,-34.75941 13.32603,-3.69519 27.38182,1.67822 34.93571,13.35563 6.66043,10.29621 6.65991,23.83905 -0.001,34.14524 -7.20927,11.15414 -21.61298,16.88108 -34.04271,13.53546 z"
     id="path2670"
     transform="translate(-32)" />
  <path
     style="fill:#ffffff;stroke-width:3.66198"
     d="m 248.46882,286.69361 c -11.90609,-2.88748 -21.8335,-13.84205 -23.75246,-26.21006 -2.86985,-18.49667 12.36619,-36.05792 31.28364,-36.05792 18.93893,0 34.15675,17.54025 31.28364,36.05792 -2.84272,18.32175 -20.94326,30.5443 -38.81482,26.21006 z"
     id="path2672"
     transform="translate(-32)" />
  <path
     style="fill:#ffffff;stroke-width:3.66198"
     d="m 344.39244,190.66023 c -21.12149,-5.68881 -30.5509,-29.62505 -18.81642,-47.76483 7.50504,-11.60169 21.599,-16.96741 34.88837,-13.28238 11.5281,3.19665 20.7513,13.57853 22.79564,25.65938 2.63337,15.56159 -7.98044,31.31549 -23.84476,35.3924 -4.51796,1.16105 -10.70207,1.15917 -15.02283,-0.004 z"
     id="path2674"
     transform="translate(-32)" />
  <path
     style="fill:#ffffff;stroke-width:3.66198"
     d="m 344.03138,382.60653 c -13.92209,-3.82729 -23.48879,-16.3274 -23.45369,-30.64522 0.036,-14.69827 9.6082,-26.883 24.08015,-30.65247 17.28902,-4.50321 35.52955,7.72867 38.60219,25.88617 2.61556,15.45633 -7.92513,31.25833 -23.64099,35.44125 -4.07607,1.08489 -11.58524,1.07056 -15.58766,-0.0297 z"
     id="path2676"
     transform="translate(-32)" />
  <path
     style="fill:#ffffff;stroke-width:3.66198"
     d="m 152.10877,382.60653 c -5.46819,-1.50324 -9.91478,-4.134 -14.20328,-8.40316 -12.74775,-12.69026 -12.73166,-31.98911 0.0371,-44.4826 10.16938,-9.95017 23.8573,-12.08473 36.4946,-5.69115 19.59284,9.91257 22.93165,36.75118 6.41729,51.58443 -7.54572,6.7776 -19.20795,9.61447 -28.74568,6.99248 z"
     id="path2678"
     transform="translate(-32)" />
</svg>
